<svg xmlns="http://www.w3.org/2000/svg" width="56.941" height="56.941" viewBox="0 0 56.941 56.941">
  <g id="ic_google" transform="translate(0 0)">
    <path id="Path_12580" data-name="Path 12580" d="M13.346,117.54a15.032,15.032,0,0,1,2.128-7.727v-9.6h-9.6a28.485,28.485,0,0,0,0,34.651h9.6v-9.6A15.032,15.032,0,0,1,13.346,117.54Z" transform="translate(0 -89.07)" fill="#fbbd00"/>
    <path id="Path_12581" data-name="Path 12581" d="M202.673,375.078,196,381.751l6.673,6.673A28.255,28.255,0,0,0,220,382.549v-9.588H210.41A15.123,15.123,0,0,1,202.673,375.078Z" transform="translate(-174.202 -331.483)" fill="#0f9d58"/>
    <path id="Path_12582" data-name="Path 12582" d="M62.422,325.477l-9.6,9.6a28.927,28.927,0,0,0,2.464,2.806,28.285,28.285,0,0,0,20.132,8.339V332.875A15.131,15.131,0,0,1,62.422,325.477Z" transform="translate(-46.948 -289.28)" fill="#31aa52"/>
    <path id="Path_12583" data-name="Path 12583" d="M284.471,203.85a28.721,28.721,0,0,0-.466-5.158l-.25-1.368H256V210.67h13.507a15.057,15.057,0,0,1-5.77,6.188l9.588,9.588a28.925,28.925,0,0,0,2.806-2.464A28.285,28.285,0,0,0,284.471,203.85Z" transform="translate(-227.529 -175.379)" fill="#3c79e6"/>
    <path id="Path_12584" data-name="Path 12584" d="M213.368,17.776l1.18,1.18,9.437-9.437-1.18-1.18A28.284,28.284,0,0,0,202.673,0L196,6.673l6.673,6.673A15.026,15.026,0,0,1,213.368,17.776Z" transform="translate(-174.202)" fill="#cf2d48"/>
    <path id="Path_12585" data-name="Path 12585" d="M75.418,13.346V0A28.285,28.285,0,0,0,55.286,8.339a28.9,28.9,0,0,0-2.464,2.806l9.6,9.6a15.132,15.132,0,0,1,13-7.4Z" transform="translate(-46.947 0)" fill="#eb4132"/>
  </g>
</svg>
